<svg width="1200" height="630" viewBox="0 0 1200 630" xmlns="http://www.w3.org/2000/svg">
  <rect width="1200" height="630" fill="#0d0d0f"/>
  <defs>
    <pattern id="grid" width="60" height="60" patternUnits="userSpaceOnUse">
      <path d="M 60 0 L 0 0 0 60" fill="none" stroke="rgba(255,255,255,0.025)" stroke-width="0.5"/>
    </pattern>
    <linearGradient id="gold" x1="0" y1="0" x2="1" y2="1">
      <stop offset="0%" stop-color="#e8c96d"/>
      <stop offset="100%" stop-color="#b8922e"/>
    </linearGradient>
    <linearGradient id="glow" x1="0" y1="0" x2="0" y2="1">
      <stop offset="0%" stop-color="rgba(201,168,76,0.15)"/>
      <stop offset="100%" stop-color="rgba(201,168,76,0)"/>
    </linearGradient>
  </defs>
  <rect width="1200" height="630" fill="url(#grid)"/>
  <ellipse cx="600" cy="0" rx="500" ry="200" fill="url(#glow)"/>
  <rect x="80" y="80" width="72" height="72" rx="16" fill="url(#gold)"/>
  <path d="M124 108 A18 18 0 1 0 124 132" stroke="#0d0d0f" stroke-width="6" fill="none" stroke-linecap="round"/>
  <path d="M128 102 L128 138" stroke="#0d0d0f" stroke-width="6" stroke-linecap="round"/>
  <path d="M128 102 Q144 102 144 112 Q144 122 128 122" stroke="#0d0d0f" stroke-width="5" fill="none" stroke-linecap="round"/>
  <path d="M133 122 L146 138" stroke="#0d0d0f" stroke-width="5" stroke-linecap="round"/>
  <text x="168" y="118" font-family="Georgia, serif" font-size="38" font-weight="300" fill="#e2e2ea" letter-spacing="2"><tspan fill="#e2e2ea">Crafted</tspan><tspan fill="#c9a84c">Resume</tspan></text>
  <text x="170" y="140" font-family="Arial, sans-serif" font-size="13" font-weight="300" fill="#5a5a68" letter-spacing="3">AI-POWERED RESUME TOOLS</text>
  <text x="80" y="310" font-family="Georgia, serif" font-size="96" font-weight="300" fill="#e2e2ea" letter-spacing="-2">Your resume,</text>
  <text x="80" y="415" font-family="Georgia, serif" font-size="96" font-weight="300" fill="#c9a84c" letter-spacing="-2" font-style="italic">crafted to perfection.</text>
  <text x="80" y="480" font-family="Arial, sans-serif" font-size="22" font-weight="300" fill="#7a7a88">Build · Tailor · Optimize · Apply — all in one place.</text>
  <rect x="80" y="520" width="140" height="36" rx="18" fill="rgba(201,168,76,0.1)" stroke="rgba(201,168,76,0.3)" stroke-width="1"/>
  <text x="150" y="543" text-anchor="middle" font-family="Arial, sans-serif" font-size="13" fill="#c9a84c">Build Resume</text>
  <rect x="234" y="520" width="140" height="36" rx="18" fill="rgba(201,168,76,0.1)" stroke="rgba(201,168,76,0.3)" stroke-width="1"/>
  <text x="304" y="543" text-anchor="middle" font-family="Arial, sans-serif" font-size="13" fill="#c9a84c">Tailor to Job</text>
  <rect x="388" y="520" width="170" height="36" rx="18" fill="rgba(201,168,76,0.1)" stroke="rgba(201,168,76,0.3)" stroke-width="1"/>
  <text x="473" y="543" text-anchor="middle" font-family="Arial, sans-serif" font-size="13" fill="#c9a84c">LinkedIn Optimizer</text>
  <rect x="572" y="520" width="140" height="36" rx="18" fill="rgba(201,168,76,0.1)" stroke="rgba(201,168,76,0.3)" stroke-width="1"/>
  <text x="642" y="543" text-anchor="middle" font-family="Arial, sans-serif" font-size="13" fill="#c9a84c">Apply Mode</text>
  <rect x="820" y="110" width="320" height="430" rx="16" fill="#1a1a1f" stroke="rgba(255,255,255,0.06)" stroke-width="1"/>
  <rect x="844" y="140" width="160" height="10" rx="5" fill="#e2e2ea" opacity="0.7"/>
  <rect x="844" y="158" width="100" height="8" rx="4" fill="#c9a84c" opacity="0.6"/>
  <rect x="844" y="176" width="272" height="1" fill="rgba(201,168,76,0.2)"/>
  <rect x="844" y="192" width="60" height="7" rx="3" fill="#c9a84c" opacity="0.5"/>
  <rect x="844" y="208" width="272" height="6" rx="3" fill="#e2e2ea" opacity="0.15"/>
  <rect x="844" y="222" width="240" height="6" rx="3" fill="#e2e2ea" opacity="0.15"/>
  <rect x="844" y="236" width="260" height="6" rx="3" fill="#e2e2ea" opacity="0.15"/>
  <rect x="844" y="258" width="60" height="7" rx="3" fill="#c9a84c" opacity="0.5"/>
  <rect x="844" y="274" width="272" height="6" rx="3" fill="#e2e2ea" opacity="0.15"/>
  <rect x="844" y="288" width="220" height="6" rx="3" fill="#e2e2ea" opacity="0.15"/>
  <rect x="844" y="302" width="250" height="6" rx="3" fill="#e2e2ea" opacity="0.15"/>
  <rect x="844" y="316" width="272" height="6" rx="3" fill="#e2e2ea" opacity="0.15"/>
  <rect x="844" y="338" width="60" height="7" rx="3" fill="#c9a84c" opacity="0.5"/>
  <rect x="844" y="354" width="272" height="6" rx="3" fill="#e2e2ea" opacity="0.15"/>
  <rect x="844" y="368" width="180" height="6" rx="3" fill="#e2e2ea" opacity="0.15"/>
  <rect x="844" y="410" width="120" height="32" rx="8" fill="rgba(74,222,128,0.1)" stroke="rgba(74,222,128,0.3)" stroke-width="1"/>
  <text x="904" y="431" text-anchor="middle" font-family="Arial, sans-serif" font-size="12" fill="#4ade80">ATS: 94/100</text>
  <text x="1120" y="600" text-anchor="end" font-family="Arial, sans-serif" font-size="14" fill="#3a3a48">craftedresume.io</text>
</svg>
